# xmcd
#
# Track frame offsets:
#	150
#	12165
#	24415
#	36167
#	50112
#	61392
#	74757
#	87232
#	100805
#	116982
#	135122
#	147910
#
# Disc length: 2270 seconds
#
# Revision: 1
# Processed by: cddbd v1.5.1PL0 Copyright (c) Steve Scherf et al.
# Submitted via: dBpowerAMP V4.0
#
DISCID=a808dc0c
DTITLE=Ray Price - 36 All-Time Favorites, Disc 2
DYEAR=2000
DGENRE=Country
TTITLE0=Wish I Could Fall In Love Today
TTITLE1=Heart Over Mind
TTITLE2=Pride
TTITLE3=Walk Me To The Door
TTITLE4=Burning Memories
TTITLE5=The Other Woman (In My Life)
TTITLE6=Don't You Ever Get Tired Of Hurting Me
TTITLE7=A Way To Survive
TTITLE8=Touch My Heart
TTITLE9=I'm Still Not Over You
TTITLE10=Crazy
TTITLE11=Danny Boy
EXTD=
EXTT0=
EXTT1=
EXTT2=
EXTT3=
EXTT4=
EXTT5=
EXTT6=
EXTT7=
EXTT8=
EXTT9=
EXTT10=
EXTT11=
PLAYORDER=
